<?xml version="1.0" encoding="utf-8"?>
<!-- Generator: Adobe Illustrator 22.0.0, SVG Export Plug-In . SVG Version: 6.00 Build 0)  -->
<svg version="1.1" id="Layer_1" xmlns="http://www.w3.org/2000/svg" xmlns:xlink="http://www.w3.org/1999/xlink" x="0px" y="0px"
	 viewBox="0 0 196 196" style="enable-background:new 0 0 196 196;" xml:space="preserve">
<style type="text/css">
	.st0{fill:#7E939D;}
	.st1{opacity:0.5;fill:#DAE1E5;}
	.st2{fill:#627883;}
	.st3{fill:#445056;}
	.st4{fill:#808265;}
	.st5{fill:#B0BBC1;}
	.st6{fill:#627896;}
	.st7{fill:#D8DDE0;}
</style>
<title>Asset 1</title>
<path class="st0" d="M82.4,69.4c-0.3,3-0.4,6.1-0.4,9.2c0,4.5,0.3,8.9,0.9,13.3c0.1,1.1,0.3,2.1,0.5,3.2c0.1,0.4,0.1,0.7,0.2,1.1
	c0.1,0.7,0.3,1.4,0.4,2.1c0.1,0.4,0.2,0.8,0.3,1.3c0.1,0.6,0.3,1.2,0.4,1.8c0.1,0.5,0.2,0.9,0.3,1.4c0.1,0.6,0.3,1.2,0.5,1.7
	c0.1,0.5,0.2,0.9,0.4,1.4c0.2,0.6,0.3,1.1,0.5,1.6c0.3,1,0.7,2.1,1,3.1c0.1,0.3,0.2,0.7,0.3,1c0.2,0.6,0.5,1.3,0.7,1.9
	c0.1,0.3,0.2,0.7,0.4,1c0.3,0.6,0.5,1.3,0.8,1.9c0.1,0.3,0.2,0.6,0.4,0.9c0.3,0.7,0.6,1.3,0.9,2c0.1,0.2,0.2,0.4,0.3,0.6
	c1.9,4.1,4.1,8.1,6.6,11.9c0,0,0,0,0,0c0.5,0.8,1,1.6,1.6,2.3c0,0,0,0,0,0c1.1-9.4,4.2-19.6,11.3-14.1c11.9,9.2,39.3,21.4,40.7,1.8
	c1.5-19.6-7.9-42.8,15.7-27.5c12.9,8.4,22.7,3.9,28.9-1.9c-0.7-11.9-3.4-23.2-8-33.6c-1.2-2.7-2.5-5.4-3.9-8
	c-11.5-5.4-24.3-8.4-37.8-8.4C121.1,42.5,98.6,52.8,82.4,69.4z"/>
<path class="st1" d="M179,42.9c-13.9-20.5-35.4-35.4-60.4-40.7c-8.9,7.1-16.5,15.7-22.4,25.5c9.2-3.9,19.3-6.1,29.9-6.1
	C146.6,21.6,165.3,29.7,179,42.9z"/>
<path class="st2" d="M148,171.3c-6.9,2.1-14.3,3.2-21.8,3.2c-26.5,0-50-13.6-63.7-34.2c-0.5,4.1-0.8,8.3-0.8,12.5
	c0,6.9,0.7,13.6,2,20c0.2,0.1,0.3,0.3,0.5,0.4c-0.2-0.1-0.3-0.3-0.5-0.4c1.4,6.7,3.4,13.1,6.1,19.1c8.9,2.7,18.4,4.1,28.2,4.1
	c5.5,0,11-0.5,16.2-1.3c16.9-2.8,32.3-10,45.1-20.2C155.5,173.6,151.7,172.5,148,171.3z"/>
<path class="st3" d="M60.7,170.1c-4-3.7-7.8-7.7-11.1-12c-1-1.2-1.9-2.5-2.8-3.7c-0.5-0.6-0.9-1.3-1.3-1.9c-0.9-1.3-1.7-2.6-2.5-4
	c-1.6-2.7-3.1-5.4-4.5-8.3c-0.7-1.4-1.3-2.9-2-4.3c-0.6-1.5-1.2-2.9-1.7-4.4c-1.1-3-2-6-2.8-9.1c-0.4-1.6-0.8-3.1-1.1-4.7
	c-0.8-4-1.4-8-1.7-12.1c-0.1-1.6-0.2-3.3-0.3-5c0-0.8,0-1.7,0-2.5c0-49.8,37.3-90.8,85.5-96.7C109,0.5,103.5,0,98,0
	C43.9,0,0,43.9,0,98c0,44.3,29.4,81.8,69.8,93.9c-2.7-6.1-4.7-12.5-6.1-19.1C62.7,171.9,61.7,171,60.7,170.1z"/>
<path class="st2" d="M31.8,122.3c-0.4-1.6-0.8-3.1-1.1-4.7C31.1,119.2,31.4,120.8,31.8,122.3z"/>
<path class="st2" d="M34.7,131.5c-1.1-3-2-6-2.8-9.1C32.6,125.4,33.6,128.5,34.7,131.5z"/>
<path class="st2" d="M45.4,152.4c-0.9-1.3-1.7-2.6-2.5-4C43.7,149.8,44.5,151.1,45.4,152.4z"/>
<path class="st2" d="M42.9,148.5c-1.6-2.7-3.1-5.4-4.5-8.3C39.7,143.1,41.2,145.8,42.9,148.5z"/>
<path class="st2" d="M49.5,158.1c-1-1.2-1.9-2.5-2.8-3.7C47.6,155.6,48.6,156.9,49.5,158.1z"/>
<path class="st2" d="M36.4,135.9c-0.6-1.5-1.2-2.9-1.7-4.4C35.2,133,35.8,134.4,36.4,135.9z"/>
<path class="st2" d="M29,105.5c-0.1-1.6-0.2-3.3-0.3-5C28.8,102.2,28.9,103.8,29,105.5z"/>
<path class="st2" d="M60.7,170.1c1,0.9,2,1.8,3.1,2.7v0C62.7,171.9,61.7,171,60.7,170.1z"/>
<path class="st4" d="M28.8,98c0,0.8,0,1.7,0,2.5c0,1.7,0.1,3.3,0.3,5c0.3,4.1,0.9,8.2,1.7,12.1c0.3,1.6,0.7,3.2,1.1,4.7
	c0.8,3.1,1.8,6.2,2.8,9.1c0.5,1.5,1.1,3,1.7,4.4c0.6,1.5,1.3,2.9,2,4.3c1.4,2.8,2.9,5.6,4.5,8.3c0.8,1.3,1.7,2.7,2.5,4
	c0.4,0.6,0.9,1.3,1.3,1.9c0.9,1.3,1.8,2.5,2.8,3.7c3.4,4.3,7.1,8.3,11.1,12c1,0.9,2,1.8,3.1,2.7c-1.3-6.5-2-13.2-2-20
	c0-4.2,0.3-8.4,0.8-12.5c-8.1-12.1-12.8-26.6-12.8-42.2c0-31.5,19.2-58.7,46.5-70.3c5.9-9.7,13.5-18.4,22.4-25.5
	c-1.4-0.3-2.9-0.6-4.4-0.8C66.1,7.2,28.8,48.2,28.8,98z"/>
<path class="st2" d="M63.7,172.7c0.2,0.1,0.3,0.3,0.5,0.4C64,173,63.9,172.9,63.7,172.7L63.7,172.7z"/>
<path class="st2" d="M87.3,110.6c-0.4-1-0.7-2-1-3.1C86.6,108.5,87,109.5,87.3,110.6z"/>
<path class="st2" d="M84.2,99.5c-0.1-0.4-0.2-0.8-0.3-1.3C84,98.7,84.1,99.1,84.2,99.5z"/>
<path class="st2" d="M85,102.7c-0.1-0.4-0.2-0.9-0.3-1.4C84.7,101.8,84.8,102.3,85,102.7z"/>
<path class="st2" d="M85.8,105.8c-0.1-0.5-0.3-0.9-0.4-1.4C85.5,104.9,85.7,105.4,85.8,105.8z"/>
<path class="st2" d="M89.5,116.4c-0.3-0.6-0.5-1.3-0.8-1.9C89,115.1,89.2,115.7,89.5,116.4z"/>
<path class="st2" d="M97.6,131.8C95.2,128,93,124,91,119.8C93,124,95.2,128,97.6,131.8z"/>
<path class="st2" d="M99.2,134.1c-0.5-0.8-1-1.5-1.6-2.3C98.2,132.6,98.7,133.4,99.2,134.1z"/>
<path class="st2" d="M90.8,119.2c-0.3-0.7-0.6-1.3-0.9-2C90.2,117.9,90.5,118.5,90.8,119.2z"/>
<path class="st2" d="M88.4,113.5c-0.2-0.6-0.5-1.2-0.7-1.9C87.9,112.2,88.1,112.8,88.4,113.5z"/>
<path class="st2" d="M83.5,96.2c-0.1-0.4-0.1-0.7-0.2-1.1C83.4,95.4,83.5,95.8,83.5,96.2z"/>
<path class="st5" d="M126.1,174.4c7.6,0,14.9-1.1,21.8-3.2c-20-6.9-37-20.1-48.8-37.1v0c0,0,0,0,0,0c-0.5-0.8-1-1.5-1.6-2.3
	c0,0,0,0,0,0C95.2,128,93,124,91,119.8c-0.1-0.2-0.2-0.4-0.3-0.6c-0.3-0.7-0.6-1.3-0.9-2c-0.1-0.3-0.2-0.6-0.4-0.9
	c-0.3-0.6-0.5-1.3-0.8-1.9c-0.1-0.3-0.2-0.7-0.4-1c-0.2-0.6-0.5-1.2-0.7-1.9c-0.1-0.3-0.2-0.7-0.3-1c-0.4-1-0.7-2-1-3.1
	c-0.2-0.5-0.3-1.1-0.5-1.6c-0.1-0.5-0.3-0.9-0.4-1.4c-0.2-0.6-0.3-1.2-0.5-1.7c-0.1-0.4-0.2-0.9-0.3-1.4c-0.1-0.6-0.3-1.2-0.4-1.8
	c-0.1-0.4-0.2-0.8-0.3-1.3c-0.1-0.7-0.3-1.4-0.4-2.1c-0.1-0.4-0.1-0.7-0.2-1.1C83.2,94,83,93,82.9,91.9c-0.6-4.3-0.9-8.8-0.9-13.3
	c0-3.1,0.2-6.2,0.4-9.2c-15.5,15.9-25.1,37.6-25.3,61.5c1.6,3.3,3.3,6.4,5.3,9.4C76.2,160.8,99.6,174.4,126.1,174.4z"/>
<path class="st6" d="M179,42.9c-13.7-13.2-32.4-21.3-52.9-21.3c-10.6,0-20.7,2.2-29.9,6.1C68.9,39.3,49.7,66.5,49.7,98
	c0,11.8,2.7,22.9,7.4,32.9c0.2-23.9,9.8-45.6,25.3-61.5c16.2-16.6,38.7-26.9,63.7-26.9c13.5,0,26.3,3,37.8,8.4
	C182.4,48.1,180.8,45.5,179,42.9z"/>
<path class="st2" d="M91,119.8c-0.1-0.2-0.2-0.4-0.3-0.6C90.8,119.4,90.9,119.6,91,119.8z"/>
<polygon class="st2" points="99.2,134.1 99.2,134.1 99.2,134.1 "/>
<path class="st2" d="M83.9,98.2c-0.1-0.7-0.3-1.4-0.4-2.1C83.7,96.9,83.8,97.6,83.9,98.2z"/>
<path class="st2" d="M97.7,131.8C97.7,131.8,97.6,131.8,97.7,131.8C97.6,131.8,97.7,131.8,97.7,131.8z"/>
<path class="st2" d="M86.3,107.5c-0.2-0.5-0.3-1.1-0.5-1.6C86,106.4,86.1,106.9,86.3,107.5z"/>
<path class="st2" d="M85.4,104.5c-0.2-0.6-0.3-1.2-0.5-1.7C85.1,103.3,85.3,103.9,85.4,104.5z"/>
<path class="st2" d="M83.3,95.1C83.2,94,83,93,82.9,91.9C83,93,83.2,94,83.3,95.1z"/>
<path class="st2" d="M84.6,101.4c-0.1-0.6-0.3-1.2-0.4-1.8C84.3,100.1,84.5,100.8,84.6,101.4z"/>
<path class="st2" d="M87.7,111.6c-0.1-0.3-0.2-0.7-0.3-1C87.4,110.9,87.5,111.2,87.7,111.6z"/>
<path class="st2" d="M88.7,114.4c-0.1-0.3-0.2-0.7-0.4-1C88.5,113.8,88.6,114.1,88.7,114.4z"/>
<path class="st2" d="M89.9,117.2c-0.1-0.3-0.2-0.6-0.4-0.9C89.6,116.6,89.7,116.9,89.9,117.2z"/>
<path class="st7" d="M148,171.3c3.7,1.3,7.5,2.3,11.4,3.2c7.6-6.1,14.2-13.3,19.7-21.3c10.7-15.7,17-34.7,17-55.1
	c0-1.9-0.1-3.7-0.2-5.6c-6.2,5.8-16,10.3-28.9,1.9c-23.6-15.3-14.2,7.9-15.7,27.5c-1.5,19.6-28.8,7.3-40.7-1.8
	c-7.1-5.5-10.2,4.8-11.3,14.1C111,151.2,128,164.4,148,171.3z"/>
</svg>
