<?xml version="1.0" encoding="UTF-8"?>
<!DOCTYPE svg PUBLIC "-//W3C//DTD SVG 1.1//EN" "http://www.w3.org/Graphics/SVG/1.1/DTD/svg11.dtd">
<!-- Creator: CorelDRAW 2017 -->
<svg xmlns="http://www.w3.org/2000/svg" xml:space="preserve" width="1.67363in" height="1.67363in" version="1.1" style="shape-rendering:geometricPrecision; text-rendering:geometricPrecision; image-rendering:optimizeQuality; fill-rule:evenodd; clip-rule:evenodd"
viewBox="0 0 1792.11 1792.11"
 xmlns:xlink="http://www.w3.org/1999/xlink">
 <defs>
  <style type="text/css">
   <![CDATA[
    .str0 {stroke:white;stroke-width:7.44;stroke-miterlimit:2.61313}
    .fil0 {fill:#04305C}
    .fil1 {fill:white}
   ]]>
  </style>
 </defs>
 <g id="Layer_x0020_1">
  <metadata id="CorelCorpID_0Corel-Layer"/>
  <circle class="fil0 str0" cx="896.05" cy="896.05" r="892.34"/>
  <g id="_2643896217648">
   <g id="Layer_2" data-name="Layer 2">
    <g id="AW">
     <g id="_Group_" data-name="&lt;Group&gt;">
      <path id="_Path_" class="fil1" d="M863.74 1189.4c-146.91,-16.6 -263.26,-140.8 -263.26,-293.34 0,-152.55 116.35,-276.74 263.26,-293.34l0 -331.3c-329.07,17.25 -592.33,289.88 -592.33,624.65 0,334.77 263.26,607.4 592.33,624.65l0 -331.3z" data-name="&lt;Path&gt;"/>
      <path id="_Path_2" class="fil1" d="M928.37 271.41l0 331.3c146.91,16.6 263.26,140.8 263.26,293.34 0,152.55 -116.35,276.74 -263.26,293.34l0 331.3c329.07,-17.25 592.33,-289.88 592.33,-624.65 0,-334.77 -263.26,-607.4 -592.33,-624.65z" data-name="&lt;Path&gt;"/>
     </g>
    </g>
   </g>
  </g>
 </g>
</svg>
