<?xml version="1.0" encoding="UTF-8"?>
<!DOCTYPE svg PUBLIC "-//W3C//DTD SVG 1.1//EN" "http://www.w3.org/Graphics/SVG/1.1/DTD/svg11.dtd">
<!-- Creator: CorelDRAW X7 -->
<svg xmlns="http://www.w3.org/2000/svg" xml:space="preserve" width="0.944882in" height="0.944882in" version="1.1" shape-rendering="geometricPrecision" text-rendering="geometricPrecision" image-rendering="optimizeQuality" fill-rule="evenodd" clip-rule="evenodd"
viewBox="0 0 1754 1754"
 xmlns:xlink="http://www.w3.org/1999/xlink">
 <defs>
   <clipPath id="id0">
    <path d="M877 0c484,0 877,393 877,877 0,484 -393,877 -877,877 -484,0 -877,-393 -877,-877 0,-484 393,-877 877,-877z"/>
   </clipPath>
    <clipPath id="id1">
    </clipPath>
    <clipPath id="id2">
     <path d="M877 0c484,0 877,393 877,877 0,484 -393,877 -877,877 -484,0 -877,-393 -877,-877 0,-484 393,-877 877,-877z"/>
    </clipPath>
    <clipPath id="id3">
    </clipPath>
    <clipPath id="id4">
     <path d="M877 0c484,0 877,393 877,877 0,484 -393,877 -877,877 -484,0 -877,-393 -877,-877 0,-484 393,-877 877,-877z"/>
    </clipPath>
    <clipPath id="id5">
    </clipPath>
    <clipPath id="id6">
     <path d="M877 0c484,0 877,393 877,877 0,484 -393,877 -877,877 -484,0 -877,-393 -877,-877 0,-484 393,-877 877,-877z"/>
    </clipPath>
    <clipPath id="id7">
    </clipPath>
    <clipPath id="id8">
     <path d="M877 0c484,0 877,393 877,877 0,484 -393,877 -877,877 -484,0 -877,-393 -877,-877 0,-484 393,-877 877,-877z"/>
    </clipPath>
    <clipPath id="id9">
    </clipPath>
    <clipPath id="id10">
     <path d="M877 0c484,0 877,393 877,877 0,484 -393,877 -877,877 -484,0 -877,-393 -877,-877 0,-484 393,-877 877,-877z"/>
    </clipPath>
    <clipPath id="id11">
    </clipPath>
    <clipPath id="id12">
     <path d="M877 0c484,0 877,393 877,877 0,484 -393,877 -877,877 -484,0 -877,-393 -877,-877 0,-484 393,-877 877,-877z"/>
    </clipPath>
 </defs>
 <g id="Layer_x0020_1">
  <metadata id="CorelCorpID_0Corel-Layer"/>
  <path fill="#B3B3B3" d="M877 0c484,0 877,393 877,877 0,484 -393,877 -877,877 -484,0 -877,-393 -877,-877 0,-484 393,-877 877,-877z"/>
  <g clip-path="url(#id0)">
   <g id="_2972874389472">
    <path id="1" fill="#FCBB2B" d="M795 -10l970 0 0 1764 -875 0 0 0c0,0 -317,-55 -315,-367 3,-312 832,-1041 832,-1041l-612 -356z"/>
    <path fill="#1F91D0" d="M-49 1772l939 -18c0,0 -317,-55 -315,-367 3,-312 832,-1041 832,-1041l-669 -389 -777 12 -10 1803z"/>
    <path fill="#4CA7DA" d="M-49 1772l926 -18 0 0c-27,-10 -53,-20 -78,-31 -36,-16 -79,-37 -121,-66 -373,-242 -487,-732 -341,-1471 14,-34 28,-67 42,-100l-499 -202 71 1888z"/>
   </g>
   <g clip-path="url(#id1)">
    <image x="-1155" y="-940" width="1149" height="1806" xlink:href="BII01_Images\BII01_ImgID1.png"/>
   </g>
   <g clip-path="url(#id2)">
   </g>
   <g clip-path="url(#id3)">
    <image x="-2692" y="-225" width="1178" height="1890" xlink:href="BII01_Images\BII01_ImgID2.png"/>
   </g>
   <g clip-path="url(#id4)">
    <path fill="#94CAE9" d="M-62 1772l939 -18c0,0 -103,-25 -203,-92 -500,-264 -613,-756 -337,-1476l-471 -303 72 1889z"/>
    <path fill="#FDC955" d="M888 1754c-292,-295 -119,-764 519,-1408 -921,739 -1051,1237 -519,1408z"/>
   </g>
   <g clip-path="url(#id5)">
    <image x="2039" y="-736" width="2317" height="1877" xlink:href="BII01_Images\BII01_ImgID3.png"/>
   </g>
   <g clip-path="url(#id6)">
   </g>
   <g clip-path="url(#id7)">
    <image x="2785" y="1201" width="1191" height="1765" xlink:href="BII01_Images\BII01_ImgID4.png"/>
   </g>
   <g clip-path="url(#id8)">
    <path fill="#1874A7" d="M1407 346c-240,162 -1627,882 -530,1408 -535,-227 -358,-696 530,-1408z"/>
   </g>
   <g clip-path="url(#id9)">
    <image x="4755" y="-2188" width="1027" height="1084" xlink:href="BII01_Images\BII01_ImgID5.png"/>
   </g>
   <g clip-path="url(#id10)">
   </g>
   <g clip-path="url(#id11)">
    <image x="-1420" y="1400" width="1037" height="879" xlink:href="BII01_Images\BII01_ImgID6.png"/>
   </g>
   <g clip-path="url(#id12)">
    <path fill="#FCBB2B" fill-opacity="0.101961" d="M1464 -2646l970 0 0 1764 -875 0 0 0c0,0 -317,-56 -315,-367 3,-312 833,-1042 833,-1042l-613 -355z"/>
   </g>
  </g>
  <path fill="none" d="M877 0c484,0 877,393 877,877 0,484 -393,877 -877,877 -484,0 -877,-393 -877,-877 0,-484 393,-877 877,-877z"/>
 </g>
</svg>
