<?xml version="1.0" encoding="UTF-8"?>
<!DOCTYPE svg PUBLIC "-//W3C//DTD SVG 1.1//EN" "http://www.w3.org/Graphics/SVG/1.1/DTD/svg11.dtd">
<!-- Creator: CorelDRAW X7 -->
<svg xmlns="http://www.w3.org/2000/svg" xml:space="preserve" width="0.944882in" height="0.944882in" version="1.1" shape-rendering="geometricPrecision" text-rendering="geometricPrecision" image-rendering="optimizeQuality" fill-rule="evenodd" clip-rule="evenodd"
viewBox="0 0 411 411"
 xmlns:xlink="http://www.w3.org/1999/xlink">
 <defs>
   <clipPath id="id0">
    <path d="M206 0c113,0 205,92 205,206 0,113 -92,205 -205,205 -114,0 -206,-92 -206,-205 0,-114 92,-206 206,-206z"/>
   </clipPath>
 </defs>
 <g id="Layer_x0020_1">
  <metadata id="CorelCorpID_0Corel-Layer"/>
  <path fill="#D0E2D7" d="M206 0c113,0 205,92 205,206 0,113 -92,205 -205,205 -114,0 -206,-92 -206,-205 0,-114 92,-206 206,-206z"/>
  <g clip-path="url(#id0)">
   <g id="_2237506082448">
    <polygon id="1" fill="#106A37" points="141,144 241,51 241,144 341,51 341,650 114,862 114,769 14,862 14,769 -87,862 -87,262 141,51 "/>
    <polygon fill="#ABCBB9" points="-551,209 -451,115 -451,209 -350,115 -350,715 -578,926 -578,833 -678,926 -678,833 -778,926 -778,327 -551,115 "/>
    <g>
    </g>
    <g>
    </g>
    <g>
    </g>
    <polygon fill="#579673" points="211,267 311,174 311,267 411,174 411,684 249,834 249,741 149,834 149,741 49,834 49,324 211,174 "/>
    <polygon fill="#87B49B" points="110,267 6,364 6,367 6,794 107,701 107,794 207,701 207,794 311,698 311,267 211,360 211,267 110,360 "/>
    <polygon fill="#106A37" points="707,50 621,130 621,460 706,381 "/>
    <polygon fill="#106A37" fill-opacity="0.501961" points="793,56 707,135 708,466 793,386 "/>
    <polygon fill="#106A37" fill-opacity="0.349020" points="884,47 798,127 798,457 884,378 "/>
    <polygon fill="#106A37" fill-opacity="0.701961" points="617,77 531,157 531,488 617,408 "/>
    <polygon fill="#106A37" fill-opacity="0.200000" points="969,24 884,104 884,434 969,355 "/>
    <polygon fill="#87B49B" points="1231,2 1332,-92 1332,2 1432,-92 1432,508 1204,719 1204,626 1104,719 1104,626 1004,719 1004,120 1231,-92 "/>
    <polygon fill="#579673" points="1301,124 1401,31 1401,124 1502,31 1502,541 1340,691 1340,598 1239,691 1239,598 1139,691 1139,182 1301,31 "/>
    <polygon fill="#106A37" points="1201,124 1097,221 1097,224 1097,651 1197,558 1197,651 1298,558 1298,651 1401,555 1401,124 1301,217 1301,124 1201,217 "/>
   </g>
  </g>
  <path fill="none" d="M206 0c113,0 205,92 205,206 0,113 -92,205 -205,205 -114,0 -206,-92 -206,-205 0,-114 92,-206 206,-206z"/>
 </g>
</svg>
