<?xml version="1.0" encoding="UTF-8"?>
<!DOCTYPE svg PUBLIC "-//W3C//DTD SVG 1.1//EN" "http://www.w3.org/Graphics/SVG/1.1/DTD/svg11.dtd">
<!-- Creator: CorelDRAW 2017 -->
<svg xmlns="http://www.w3.org/2000/svg" xml:space="preserve" width="35.2778mm" height="35.2778mm" version="1.1" style="shape-rendering:geometricPrecision; text-rendering:geometricPrecision; image-rendering:optimizeQuality; fill-rule:evenodd; clip-rule:evenodd"
viewBox="0 0 671.1 671.1"
 xmlns:xlink="http://www.w3.org/1999/xlink">
 <defs>
  <style type="text/css">
   <![CDATA[
    .str0 {stroke:#FABAC0;stroke-width:1.45;stroke-miterlimit:22.9256}
    .fil2 {fill:#68737A;fill-rule:nonzero}
    .fil1 {fill:#BBC0C3;fill-rule:nonzero}
    .fil0 {fill:#E8EAEB;fill-rule:nonzero}
    .fil7 {fill:#EC1A2D;fill-rule:nonzero}
    .fil6 {fill:#F25E6C;fill-rule:nonzero}
    .fil4 {fill:#F798A0;fill-rule:nonzero}
    .fil5 {fill:#FABAC0;fill-rule:nonzero}
    .fil3 {fill:#FDDCDF;fill-rule:nonzero}
   ]]>
  </style>
 </defs>
 <g id="Layer_x0020_1">
  <metadata id="CorelCorpID_0Corel-Layer"/>
  <path class="fil0" d="M398.03 665.27c-18.12,3.42 -36.78,5.43 -55.84,5.7l35.84 -36.17 20 30.47zm-312.27 -105.77c-5.64,-6.24 -11.01,-12.68 -16.11,-19.4l36.91 -37.65 110.4 -112.61 22.55 34.36 117.58 178.85 -24.5 67.98c-49.12,-0.4 -95.7,-11.34 -137.64,-30.8 -41.81,-19.26 -78.92,-46.84 -109.19,-80.73z"/>
  <polygon class="fil1" points="425.48,411.72 395.62,496.08 357.1,603.05 239.52,424.21 216.97,389.84 235.76,370.72 254.55,351.59 254.55,351.52 315.08,289.85 322.06,282.74 381.46,343.94 "/>
  <polygon class="fil2" points="101.2,95.5 81.61,184.02 81,186.77 80.94,186.63 81.54,183.88 "/>
  <polygon class="fil2" points="216.97,389.84 106.57,502.46 138.79,413.94 108.59,497.89 235.76,370.72 "/>
  <polygon class="fil2" points="425.82,412.19 395.62,496.08 425.48,411.72 "/>
  <polygon class="fil2" points="101.2,95.5 81.61,184.02 81,186.77 80.94,186.63 81.54,183.88 "/>
  <polygon class="fil2" points="235.76,370.72 216.97,389.84 106.57,502.46 138.79,413.94 108.59,497.89 "/>
  <path class="fil2" d="M311.93 272.07c0.4,0.4 0.74,0.8 1.07,1.21l-34.9 -35.97 -54.43 -56.17 -101.4 -104.63c0.07,0 0.07,0 0.14,-0.07l101.34 104.56 54.43 56.17 33.76 34.9z"/>
  <polygon class="fil2" points="321.86,252.33 285.96,199.45 286.29,197.64 "/>
  <polygon class="fil2" points="425.82,412.19 395.62,496.08 425.48,411.72 "/>
  <path class="fil2" d="M311.93 272.07c0.4,0.4 0.74,0.8 1.07,1.21l-34.9 -35.97 0.07 -0.14 33.76 34.9z"/>
  <polygon class="fil2" points="321.86,252.33 285.96,199.45 286.29,197.64 "/>
  <polygon class="fil2" points="425.82,412.19 395.62,496.08 425.48,411.72 "/>
  <path class="fil2" d="M621.98 388.17l25.1 -25.37c-0.6,0.8 -1.34,1.61 -2.08,2.35l-23.02 23.02z"/>
  <path class="fil0" d="M381.46 343.94l-59.39 -61.21 -8.86 -9.19 -0.2 -0.27c-0.33,-0.4 -0.67,-0.8 -1.07,-1.21l-33.76 -34.9 -54.43 -56.17 -101.34 -104.56c17.05,-14.03 35.43,-26.37 55.03,-36.84l63.69 93.75 0 0.07 44.83 66.04 35.9 52.88 1.54 2.35 10.4 16.04 47.65 73.22z"/>
  <path class="fil1 str0" d="M101.2 95.5l-19.66 88.38 -23.89 -36.37c12.75,-18.79 27.31,-36.24 43.55,-52.01z"/>
  <path class="fil3" d="M21.81 454.61c-14.09,-37.05 -21.81,-77.11 -21.81,-119.05 0,-69.66 21.27,-134.42 57.65,-188.04l23.89 36.37 89.32 141.13 -28.59 79.39 -3.49 9.53 -32.21 88.52 -36.91 37.65c-19.93,-25.77 -36.17,-54.56 -47.85,-85.5z"/>
  <path class="fil4" d="M293.41 163.28l-7.52 33.76 0.4 0.6 -0.33 1.81 -44.83 -66.04 0 -0.07 -63.69 -93.75c33.96,-18.25 71.4,-30.74 111.07,-36.31 12.68,-1.81 25.5,-2.89 38.59,-3.16l-33.69 163.15z"/>
  <path class="fil5" d="M671.1 335.55c0,1.01 0,2.01 -0.07,3.02 0,5.77 -0.2,11.48 -0.6,17.18l-8.05 -8.39 -156.5 -162.54 -43.49 -45.23 -134.29 -139.46c2.48,-0.13 4.97,-0.13 7.45,-0.13 74.63,0 143.62,24.43 199.39,65.7 3.49,2.62 6.98,5.24 10.33,7.99 76.71,61.47 125.83,155.96 125.83,261.87z"/>
  <path class="fil6" d="M670.43 355.75c-4.5,76.84 -34.96,146.7 -82.68,201.06l-65.63 -67.71 99.86 -100.93 23.02 -23.02c0.74,-0.74 1.48,-1.54 2.08,-2.35l15.3 -15.44 8.05 8.39z"/>
  <path class="fil1" d="M587.75 556.82c-10.94,12.55 -22.82,24.23 -35.57,34.9 -43.35,36.71 -96.1,62.61 -154.15,73.55l-20 -30.47 120.67 -121.94 23.42 -23.76 65.63 67.72z"/>
  <path class="fil2" d="M621.98 388.17l25.1 -25.37c-0.6,0.8 -1.34,1.61 -2.08,2.35l-23.02 23.02z"/>
  <path class="fil7" d="M357.1 603.05l38.52 -106.97 30.2 -83.89 -0.33 -0.47 -44.03 -67.78 -47.65 -73.22 -10.4 -16.04 -1.54 -2.35 -35.9 -52.88 0.33 -1.81 -0.4 -0.6 7.52 -33.76 33.69 -163.15c0.34,-0.07 0.67,-0.07 1.01,0l134.29 138.2 199.99 209.03 -15.3 15.44 -25.1 25.37 -99.86 100.93 -23.42 23.76 -120.67 121.94 -35.84 36.17c-1.01,0.07 -2.08,0.14 -3.09,0.07 -1.21,0.07 -2.35,0.07 -3.56,0.07l-1.95 0c-0.33,0 -0.67,0 -1.01,-0.07l24.5 -67.98z"/>
  <path class="fil2" d="M647.08 362.8c-0.6,0.8 -1.34,1.61 -2.08,2.35l-23.02 23.02 25.1 -25.37z"/>
  <polygon class="fil2" points="101.2,95.5 81.61,184.02 81,186.77 80.94,186.63 81.54,183.88 "/>
  <path class="fil2" d="M216.83 389.64l-108.25 108.25 30.2 -83.96 3.49 -9.53 28.59 -79.39 -89.26 -141 19.6 -88.52c6.71,-6.64 13.76,-12.95 21.07,-18.99l101.4 104.63 54.43 56.17 34.9 35.97 0.2 0.27 8.86 9.19 -6.98 7.11 -60.53 61.67 0 0.07 -18.79 19.13 -18.92 18.93z"/>
  <path class="fil2" d="M313 273.27l-34.9 -35.97 -54.43 -56.17 -101.4 -104.63c0.07,0 0.07,0 0.14,-0.07l101.34 104.56 54.43 56.17 33.76 34.9c0.4,0.4 0.74,0.8 1.07,1.21z"/>
 </g>
</svg>
